<svg width="22" height="22" viewBox="0 0 22 22" fill="none" xmlns="http://www.w3.org/2000/svg">
<path d="M17.5674 15.5408C17.94 14.8921 18.2194 14.1508 18.2194 13.3167C18.2194 11 16.3564 9.1466 14.0275 9.1466C11.6987 9.1466 9.83561 11 9.83561 13.3167C9.83561 15.6335 11.6987 17.4869 14.0275 17.4869C14.8659 17.4869 15.6111 17.2089 16.2632 16.8382L19.2441 19.8036L20.5483 18.5062L17.5674 15.5408V15.5408ZM14.0275 15.6335C12.7234 15.6335 11.6987 14.6141 11.6987 13.3167C11.6987 12.0194 12.7234 11 14.0275 11C15.3317 11 16.3564 12.0194 16.3564 13.3167C16.3564 14.6141 15.3317 15.6335 14.0275 15.6335ZM10.7672 18.4136V20.2669C5.62507 20.2669 1.45178 16.1154 1.45178 11C1.45178 5.88463 5.62507 1.73303 10.7672 1.73303C15.2758 1.73303 19.0299 4.92087 19.8962 9.1466H17.9679C17.6774 8.027 17.1276 6.99053 16.3626 6.12002C15.5975 5.24952 14.6383 4.56911 13.5618 4.13317V4.51312C13.5618 5.53249 12.7234 6.36651 11.6987 6.36651H9.83561V8.2199C9.83561 8.72959 9.41642 9.1466 8.90408 9.1466H7.041V11H8.90408V13.7801H7.97254L3.51048 9.3412C3.38938 9.87869 3.31486 10.4254 3.31486 11C3.31486 15.0867 6.65907 18.4136 10.7672 18.4136Z" fill="#2ECC71"/>
</svg>
